<mxfile host="Electron" modified="2023-05-03T10:10:39.654Z" agent="Mozilla/5.0 (Windows NT 10.0; Win64; x64) AppleWebKit/537.36 (KHTML, like Gecko) draw.io/21.2.1 Chrome/112.0.5615.87 Electron/24.1.2 Safari/537.36" etag="4tAtN_Mf9F0EC4Ueo652" version="21.2.1" type="device">
  <diagram name="Страница 1" id="qeI0gqzXc6RVXukEL3GK">
    <mxGraphModel dx="623" dy="828" grid="1" gridSize="10" guides="1" tooltips="1" connect="1" arrows="1" fold="1" page="1" pageScale="1" pageWidth="827" pageHeight="1169" math="0" shadow="0">
      <root>
        <mxCell id="0" />
        <mxCell id="1" parent="0" />
        <mxCell id="xZhNKJaJEJdc_Em7-fL--1" value="&lt;b&gt;Document Server&lt;/b&gt;" style="verticalAlign=top;align=center;spacingTop=8;spacingLeft=2;spacingRight=12;shape=cube;size=10;direction=south;fontStyle=4;html=1;whiteSpace=wrap;" vertex="1" parent="1">
          <mxGeometry x="50" y="210" width="290" height="130" as="geometry" />
        </mxCell>
        <mxCell id="xZhNKJaJEJdc_Em7-fL--2" value="&lt;p style=&quot;margin:0px;margin-top:6px;text-align:center;&quot;&gt;&amp;lt;&amp;lt;component&amp;gt;&amp;gt;&lt;/p&gt;&lt;p style=&quot;margin:0px;margin-top:6px;text-align:center;&quot;&gt;&lt;b&gt;Document Managment System&lt;/b&gt;&lt;/p&gt;" style="align=left;overflow=fill;html=1;dropTarget=0;whiteSpace=wrap;" vertex="1" parent="1">
          <mxGeometry x="95" y="270" width="200" height="50" as="geometry" />
        </mxCell>
        <mxCell id="xZhNKJaJEJdc_Em7-fL--3" value="" style="shape=component;jettyWidth=8;jettyHeight=4;" vertex="1" parent="xZhNKJaJEJdc_Em7-fL--2">
          <mxGeometry x="1" width="20" height="20" relative="1" as="geometry">
            <mxPoint x="-24" y="4" as="offset" />
          </mxGeometry>
        </mxCell>
        <mxCell id="xZhNKJaJEJdc_Em7-fL--4" value="&lt;b&gt;Product Server&lt;/b&gt;" style="verticalAlign=top;align=center;spacingTop=8;spacingLeft=2;spacingRight=12;shape=cube;size=10;direction=south;fontStyle=4;html=1;whiteSpace=wrap;" vertex="1" parent="1">
          <mxGeometry x="269" y="420" width="290" height="320" as="geometry" />
        </mxCell>
        <mxCell id="xZhNKJaJEJdc_Em7-fL--5" value="&lt;b&gt;Application Server&lt;/b&gt;" style="verticalAlign=top;align=center;spacingTop=8;spacingLeft=2;spacingRight=12;shape=cube;size=10;direction=south;fontStyle=4;html=1;whiteSpace=wrap;" vertex="1" parent="1">
          <mxGeometry x="304" y="490" width="225" height="230" as="geometry" />
        </mxCell>
        <mxCell id="xZhNKJaJEJdc_Em7-fL--6" value="&lt;p style=&quot;margin:0px;margin-top:6px;text-align:center;&quot;&gt;&amp;lt;&amp;lt;component&amp;gt;&amp;gt;&lt;/p&gt;&lt;p style=&quot;margin:0px;margin-top:6px;text-align:center;&quot;&gt;&lt;b&gt;Document Managment System&lt;/b&gt;&lt;/p&gt;" style="align=left;overflow=fill;html=1;dropTarget=0;whiteSpace=wrap;" vertex="1" parent="1">
          <mxGeometry x="316.5" y="535" width="200" height="50" as="geometry" />
        </mxCell>
        <mxCell id="xZhNKJaJEJdc_Em7-fL--7" value="" style="shape=component;jettyWidth=8;jettyHeight=4;" vertex="1" parent="xZhNKJaJEJdc_Em7-fL--6">
          <mxGeometry x="1" width="20" height="20" relative="1" as="geometry">
            <mxPoint x="-24" y="4" as="offset" />
          </mxGeometry>
        </mxCell>
        <mxCell id="xZhNKJaJEJdc_Em7-fL--8" value="&lt;p style=&quot;margin:0px;margin-top:6px;text-align:center;&quot;&gt;&amp;lt;&amp;lt;component&amp;gt;&amp;gt;&lt;/p&gt;&lt;p style=&quot;margin:0px;margin-top:6px;text-align:center;&quot;&gt;&lt;b&gt;Document Managment System&lt;/b&gt;&lt;/p&gt;" style="align=left;overflow=fill;html=1;dropTarget=0;whiteSpace=wrap;" vertex="1" parent="1">
          <mxGeometry x="316.5" y="590" width="200" height="50" as="geometry" />
        </mxCell>
        <mxCell id="xZhNKJaJEJdc_Em7-fL--9" value="" style="shape=component;jettyWidth=8;jettyHeight=4;" vertex="1" parent="xZhNKJaJEJdc_Em7-fL--8">
          <mxGeometry x="1" width="20" height="20" relative="1" as="geometry">
            <mxPoint x="-24" y="4" as="offset" />
          </mxGeometry>
        </mxCell>
        <mxCell id="xZhNKJaJEJdc_Em7-fL--10" value="&lt;p style=&quot;margin:0px;margin-top:6px;text-align:center;&quot;&gt;&amp;lt;&amp;lt;component&amp;gt;&amp;gt;&lt;/p&gt;&lt;p style=&quot;margin:0px;margin-top:6px;text-align:center;&quot;&gt;&lt;b&gt;Document Managment System&lt;/b&gt;&lt;/p&gt;" style="align=left;overflow=fill;html=1;dropTarget=0;whiteSpace=wrap;" vertex="1" parent="1">
          <mxGeometry x="316.5" y="650" width="200" height="50" as="geometry" />
        </mxCell>
        <mxCell id="xZhNKJaJEJdc_Em7-fL--11" value="" style="shape=component;jettyWidth=8;jettyHeight=4;" vertex="1" parent="xZhNKJaJEJdc_Em7-fL--10">
          <mxGeometry x="1" width="20" height="20" relative="1" as="geometry">
            <mxPoint x="-24" y="4" as="offset" />
          </mxGeometry>
        </mxCell>
        <mxCell id="xZhNKJaJEJdc_Em7-fL--12" value="" style="endArrow=none;html=1;rounded=0;exitX=0;exitY=0;exitDx=130;exitDy=150;exitPerimeter=0;entryX=0.422;entryY=1.01;entryDx=0;entryDy=0;entryPerimeter=0;" edge="1" parent="1" source="xZhNKJaJEJdc_Em7-fL--1" target="xZhNKJaJEJdc_Em7-fL--4">
          <mxGeometry width="50" height="50" relative="1" as="geometry">
            <mxPoint x="200" y="510" as="sourcePoint" />
            <mxPoint x="250" y="460" as="targetPoint" />
            <Array as="points">
              <mxPoint x="190" y="555" />
            </Array>
          </mxGeometry>
        </mxCell>
        <mxCell id="xZhNKJaJEJdc_Em7-fL--13" value="&lt;b&gt;Workstation&lt;/b&gt;" style="verticalAlign=top;align=center;spacingTop=8;spacingLeft=2;spacingRight=12;shape=cube;size=10;direction=south;fontStyle=4;html=1;whiteSpace=wrap;" vertex="1" parent="1">
          <mxGeometry x="550" y="210" width="250" height="120" as="geometry" />
        </mxCell>
        <mxCell id="xZhNKJaJEJdc_Em7-fL--14" value="&lt;p style=&quot;margin:0px;margin-top:6px;text-align:center;&quot;&gt;&amp;lt;&amp;lt;component&amp;gt;&amp;gt;&lt;/p&gt;&lt;p style=&quot;margin:0px;margin-top:6px;text-align:center;&quot;&gt;&lt;b&gt;Product Server UI&lt;/b&gt;&lt;/p&gt;" style="align=left;overflow=fill;html=1;dropTarget=0;whiteSpace=wrap;" vertex="1" parent="1">
          <mxGeometry x="575" y="260" width="200" height="50" as="geometry" />
        </mxCell>
        <mxCell id="xZhNKJaJEJdc_Em7-fL--15" value="" style="shape=component;jettyWidth=8;jettyHeight=4;" vertex="1" parent="xZhNKJaJEJdc_Em7-fL--14">
          <mxGeometry x="1" width="20" height="20" relative="1" as="geometry">
            <mxPoint x="-24" y="4" as="offset" />
          </mxGeometry>
        </mxCell>
        <mxCell id="xZhNKJaJEJdc_Em7-fL--16" value="&lt;b&gt;Database Server&lt;/b&gt;" style="verticalAlign=top;align=center;spacingTop=8;spacingLeft=2;spacingRight=12;shape=cube;size=10;direction=south;fontStyle=4;html=1;whiteSpace=wrap;" vertex="1" parent="1">
          <mxGeometry x="595" y="440" width="260" height="210" as="geometry" />
        </mxCell>
        <mxCell id="xZhNKJaJEJdc_Em7-fL--17" value="&lt;b&gt;RDBMS&lt;/b&gt;" style="verticalAlign=top;align=center;spacingTop=8;spacingLeft=2;spacingRight=12;shape=cube;size=10;direction=south;fontStyle=4;html=1;whiteSpace=wrap;" vertex="1" parent="1">
          <mxGeometry x="630" y="495" width="190" height="125" as="geometry" />
        </mxCell>
        <mxCell id="xZhNKJaJEJdc_Em7-fL--18" value="&lt;p style=&quot;margin:0px;margin-top:6px;text-align:center;&quot;&gt;&amp;lt;&amp;lt;component&amp;gt;&amp;gt;&lt;/p&gt;&lt;p style=&quot;margin:0px;margin-top:6px;text-align:center;&quot;&gt;&lt;b&gt;Supply Schema&lt;/b&gt;&lt;/p&gt;" style="align=left;overflow=fill;html=1;dropTarget=0;whiteSpace=wrap;" vertex="1" parent="1">
          <mxGeometry x="640" y="550" width="160" height="40" as="geometry" />
        </mxCell>
        <mxCell id="xZhNKJaJEJdc_Em7-fL--19" value="" style="shape=component;jettyWidth=8;jettyHeight=4;" vertex="1" parent="xZhNKJaJEJdc_Em7-fL--18">
          <mxGeometry x="1" width="20" height="20" relative="1" as="geometry">
            <mxPoint x="-24" y="4" as="offset" />
          </mxGeometry>
        </mxCell>
        <mxCell id="xZhNKJaJEJdc_Em7-fL--20" value="" style="endArrow=none;html=1;rounded=0;exitX=0;exitY=0;exitDx=0;exitDy=140;exitPerimeter=0;entryX=0;entryY=0;entryDx=65;entryDy=250;entryPerimeter=0;" edge="1" parent="1" source="xZhNKJaJEJdc_Em7-fL--4" target="xZhNKJaJEJdc_Em7-fL--13">
          <mxGeometry width="50" height="50" relative="1" as="geometry">
            <mxPoint x="410" y="380" as="sourcePoint" />
            <mxPoint x="460" y="330" as="targetPoint" />
            <Array as="points">
              <mxPoint x="420" y="275" />
            </Array>
          </mxGeometry>
        </mxCell>
        <mxCell id="xZhNKJaJEJdc_Em7-fL--21" value="" style="endArrow=none;html=1;rounded=0;exitX=0.375;exitY=-0.003;exitDx=0;exitDy=0;exitPerimeter=0;" edge="1" parent="1" source="xZhNKJaJEJdc_Em7-fL--4" target="xZhNKJaJEJdc_Em7-fL--16">
          <mxGeometry width="50" height="50" relative="1" as="geometry">
            <mxPoint x="590" y="390" as="sourcePoint" />
            <mxPoint x="640" y="340" as="targetPoint" />
          </mxGeometry>
        </mxCell>
      </root>
    </mxGraphModel>
  </diagram>
</mxfile>
